<svg id="Ebene_1" data-name="Ebene 1" xmlns="http://www.w3.org/2000/svg" viewBox="0 0 869.9 130.31"><defs><style>.cls-1{fill:#1c1c3c;}.cls-2{fill:#ee7016;}.cls-3{fill:#185929;}.cls-4{fill:#a01918;}</style></defs><path class="cls-1" d="M22.47,26.34H59.21v98.1h53.87v31H22.47Z" transform="translate(-22.47 -26.34)"/><path class="cls-1" d="M170.1,26.34h39.41l17.84,50.47c3.74,10.71,7.31,21.06,10.69,31.4h.36c3.57-10.53,7.5-21.58,11.24-31.75L268,26.34h37.82L256.42,155.48H219.5Z" transform="translate(-22.47 -26.34)"/><path class="cls-1" d="M314.68,26.34h84.19v31H351.42V73.79h40.13V103H351.42v21.4H401v31H314.68Z" transform="translate(-22.47 -26.34)"/><path class="cls-1" d="M417.38,26.34h36.73v98.1H508v31h-90.6Z" transform="translate(-22.47 -26.34)"/><path class="cls-1" d="M563.05,26.34h36.21l52.26,129.14h-40l-9.09-26.4H558.23l-9.44,26.4h-38Zm17.48,39.24c-2.49,8.21-5,15.69-8,24.08L568.05,102h25l-4.29-12.31c-3-8.74-5.34-16.06-7.84-24.08Z" transform="translate(-22.47 -26.34)"/><path class="cls-1" d="M717.1,108.74C710,99.11,703.72,90.37,697.3,81.1l-.36.17c.18,10.89.36,21.94.36,32.82v41.39H662V26.34h34.42l34.24,46.73c7.14,9.63,13.38,18.38,19.8,27.65l.36-.18c-.18-10.88-.36-21.94-.36-32.81V26.34h35.32V155.48H751.34Z" transform="translate(-22.47 -26.34)"/><path class="cls-1" d="M806,26.34h84.19v31H842.78V73.79h40.13V103H842.78v21.4h49.59v31H806Z" transform="translate(-22.47 -26.34)"/><circle class="cls-2" cx="120.34" cy="65.64" r="21.38"/><circle class="cls-3" cx="120.34" cy="108.93" r="21.38"/><circle class="cls-4" cx="120.34" cy="21.5" r="21.38"/></svg>